<svg xmlns="http://www.w3.org/2000/svg" xml:space="preserve" viewBox="0 0 20 20"><path fill-rule="evenodd" d="M14.1 13.6c-2.4-1.5-5.4-1.8-8.9-1-.3.1-.5.4-.4.7s.4.5.7.4c3.2-.7 5.9-.4 8 .9.3.2.6.1.8-.2.1-.3 0-.6-.2-.8zm1-2.7c-2.8-1.7-7-2.2-10.3-1.2-.4.1-.6.5-.5.9s.5.6.9.5c2.9-.9 6.7-.4 9.1 1.1.3.2.8.1 1-.2.3-.4.2-.9-.2-1.1zm1.2-3.1c-3.4-2-8.8-2.2-12-1.2-.4.2-.7.6-.5 1.1.1.5.6.7 1.1.6 2.8-.9 7.7-.7 10.6 1.1.4.2.9.1 1.2-.3.2-.5 0-1-.4-1.3z" clip-rule="evenodd"/><circle cx="10" cy="10" r="9" fill="none" /></svg>